<mxfile host="app.diagrams.net" modified="2024-02-20T08:56:52.340Z" agent="Mozilla/5.0 (Windows NT 10.0; Win64; x64) AppleWebKit/537.36 (KHTML, like Gecko) Chrome/111.0.0.0 Safari/537.36" version="23.1.5" etag="XYGTVQvpaPR_zuPa-6bn" type="github">
  <diagram name="Page-1" id="hwc2_KcxVQTGFaetMXW8">
    <mxGraphModel>
      <root>
        <mxCell id="0" />
        <mxCell id="1" parent="0" />
      </root>
    </mxGraphModel>
  </diagram>
</mxfile>
